<svg id="Capa_1" enable-background="new 0 0 512 512" height="512" viewBox="0 0 512 512" width="512" xmlns="http://www.w3.org/2000/svg"><g><circle cx="406" cy="196" r="15"/><path d="m31 136v240c0 8.284 6.716 15 15 15h323.787l116.607 116.607c5.857 5.857 15.355 5.858 21.213 0s5.858-15.355 0-21.213l-95.394-95.394h53.787c8.284 0 15-6.716 15-15v-240c0-8.284-6.716-15-15-15h-110.73l-17.562-35.125c-7.672-15.343-23.095-24.875-40.249-24.875h-82.918c-17.154 0-32.577 9.531-40.25 24.875l-17.562 35.125h-14.516l-116.607-116.607c-5.857-5.858-15.355-5.858-21.213 0s-5.858 15.355 0 21.213l95.394 95.394h-53.787c-8.284 0-15 6.716-15 15zm148.416 6.708 21.708-43.416c2.558-5.115 7.699-8.292 13.417-8.292h82.918c5.718 0 10.859 3.177 13.417 8.292l21.708 43.417c2.54 5.081 7.734 8.291 13.416 8.291h105v210h-68.787l-63.671-63.671c7.864-11.859 12.458-26.065 12.458-41.329 0-41.355-33.645-75-75-75-15.264 0-29.47 4.594-41.329 12.457l-43.413-43.413c3.488-1.307 6.435-3.889 8.158-7.336zm35.982 93.903 59.991 59.992c-5.875 2.816-12.45 4.397-19.389 4.397-24.813 0-45-20.187-45-45 0-6.939 1.581-13.514 4.398-19.389zm21.213-21.213c5.875-2.817 12.45-4.398 19.389-4.398 24.813 0 45 20.187 45 45 0 6.939-1.581 13.514-4.398 19.389zm-175.611-64.398h68.787l63.671 63.671c-7.864 11.859-12.458 26.065-12.458 41.329 0 41.355 33.645 75 75 75 15.264 0 29.47-4.594 41.329-12.457l42.458 42.457h-278.787z"/><path d="m226 151h60c8.284 0 15-6.716 15-15s-6.716-15-15-15h-60c-8.284 0-15 6.716-15 15s6.716 15 15 15z"/></g></svg>